<svg aria-hidden="true" style="position: absolute; width: 0; height: 0; overflow: hidden;" version="1.1" xmlns="http://www.w3.org/2000/svg" xmlns:xlink="http://www.w3.org/1999/xlink">
<defs>
<symbol id="Logo-footer" viewBox="0 0 41 32">
<path fill="#fff" style="fill: var(--color1, #fff)" d="M10.328 7.834c3.237 0 5.709 0.794 7.415 2.383 1.736 1.589 2.604 3.958 2.604 7.106v14.124h-4.017v-3.090c-0.706 1.089-1.721 1.927-3.046 2.516-1.295 0.559-2.84 0.839-4.634 0.839-2.619 0-4.723-0.633-6.312-1.898-1.56-1.265-2.339-2.928-2.339-4.988s0.75-3.708 2.251-4.943c1.501-1.265 3.884-1.898 7.15-1.898h6.709v-0.839c0-1.824-0.53-3.222-1.589-4.193s-2.619-1.457-4.679-1.457c-1.383 0-2.737 0.235-4.061 0.706-1.324 0.441-2.442 1.045-3.354 1.81l-1.766-3.178c1.206-0.971 2.648-1.707 4.326-2.207 1.677-0.53 3.457-0.794 5.341-0.794zM9.357 28.447c1.618 0 3.016-0.353 4.193-1.059 1.177-0.736 2.030-1.766 2.56-3.090v-3.266h-6.532c-3.59 0-5.385 1.206-5.385 3.619 0 1.177 0.456 2.104 1.368 2.781s2.178 1.015 3.796 1.015z"></path>
<path fill="#fff" style="fill: var(--color1, #fff)" d="M40.607 19.884c0 0.324-0.029 0.75-0.088 1.28h-18.979c0.265 2.060 1.162 3.722 2.692 4.988 1.559 1.236 3.487 1.854 5.782 1.854 2.795 0 5.046-0.942 6.753-2.825l2.339 2.737c-1.059 1.236-2.383 2.177-3.972 2.825-1.56 0.647-3.31 0.971-5.252 0.971-2.472 0-4.664-0.5-6.577-1.501-1.913-1.030-3.399-2.457-4.458-4.281-1.030-1.824-1.545-3.884-1.545-6.179 0-2.266 0.5-4.311 1.501-6.135 1.030-1.824 2.428-3.237 4.193-4.237 1.795-1.030 3.811-1.545 6.047-1.545s4.222 0.515 5.959 1.545c1.766 1 3.134 2.413 4.105 4.237 1 1.824 1.501 3.914 1.501 6.268zM29.043 11.41c-2.030 0-3.737 0.618-5.12 1.854-1.354 1.236-2.148 2.854-2.383 4.855h15.007c-0.235-1.972-1.045-3.575-2.428-4.811-1.354-1.265-3.046-1.898-5.076-1.898z"></path>
<path fill="#fff" style="fill: var(--color1, #fff)" d="M37.517 3.31h-15.448v-3.31h15.448v3.31z"></path>
</symbol>
<symbol id="instagram" viewBox="0 0 32 32">
<path fill="none" stroke="#fff" style="stroke: var(--color1, #fff)" stroke-linejoin="round" stroke-linecap="round" stroke-miterlimit="4" stroke-width="2.2857" d="M22.667 2.667h-13.333c-3.682 0-6.667 2.985-6.667 6.667v13.333c0 3.682 2.985 6.667 6.667 6.667h13.333c3.682 0 6.667-2.985 6.667-6.667v-13.333c0-3.682-2.985-6.667-6.667-6.667z"></path>
<path fill="none" stroke="#fff" style="stroke: var(--color1, #fff)" stroke-linejoin="round" stroke-linecap="round" stroke-miterlimit="4" stroke-width="2.2857" d="M21.333 15.16c0.164 1.11-0.025 2.243-0.542 3.239s-1.334 1.803-2.336 2.308c-1.002 0.504-2.137 0.68-3.245 0.502s-2.131-0.701-2.924-1.494c-0.793-0.793-1.316-1.816-1.494-2.924s-0.003-2.243 0.502-3.245c0.504-1.002 1.312-1.819 2.307-2.336s2.129-0.706 3.239-0.542c1.132 0.168 2.18 0.695 2.989 1.504s1.337 1.857 1.504 2.989z"></path>
<path fill="none" stroke="#fff" style="stroke: var(--color1, #fff)" stroke-linejoin="round" stroke-linecap="round" stroke-miterlimit="4" stroke-width="2.2857" d="M23.333 8.667h0.013"></path>
</symbol>
<symbol id="facebook" viewBox="0 0 32 32">
<path fill="none" stroke="#fff" style="stroke: var(--color1, #fff)" stroke-linejoin="round" stroke-linecap="round" stroke-miterlimit="4" stroke-width="2.2857" d="M24 2.667h-4c-1.768 0-3.464 0.702-4.714 1.953s-1.953 2.946-1.953 4.714v4h-4v5.333h4v10.667h5.333v-10.667h4l1.333-5.333h-5.333v-4c0-0.354 0.14-0.693 0.39-0.943s0.589-0.391 0.943-0.391h4v-5.333z"></path>
</symbol>
</defs>
</svg>
